<svg width="38" height="34" viewBox="0 0 38 34" fill="none" xmlns="http://www.w3.org/2000/svg">
<path d="M31.768 22.1674C32.433 20.576 32.794 18.8722 32.794 17C32.794 15.652 32.585 14.3601 32.224 13.1619C30.989 13.4427 29.697 13.5925 28.348 13.5925C22.534 13.5925 17.385 10.7654 14.25 6.40308C12.559 10.4471 9.329 13.7423 5.263 15.5396C5.187 16.0077 5.187 16.5132 5.187 17C5.187 20.6099 6.64229 24.072 9.23273 26.6246C11.8232 29.1772 15.3366 30.6112 19 30.6112C20.995 30.6112 22.914 30.1806 24.643 29.413C25.726 31.4537 26.22 32.4648 26.182 32.4648C23.066 33.4945 20.653 34 19 34C14.402 34 10.013 32.2214 6.783 29.0198C4.807 27.0727 3.344 24.6949 2.527 22.1112H0V13.5925H2.071C3.667 5.84141 10.64 0 19 0C23.56 0 27.949 1.77863 31.198 4.98018C33.611 7.33921 35.226 10.3535 35.891 13.5925H38V21.9989V22.0363V22.1112H37.886L31.122 28.2335L21.052 27.1101V23.9835H30.229L31.768 22.1674ZM13.813 16.5694C14.383 16.5694 14.934 16.7941 15.333 17.2059C15.732 17.5991 15.96 18.1421 15.96 18.7037C15.96 19.2654 15.732 19.8084 15.333 20.2015C14.934 20.5947 14.383 20.8194 13.813 20.8194C12.616 20.8194 11.647 19.8833 11.647 18.7037C11.647 17.5242 12.616 16.5694 13.813 16.5694ZM24.168 16.5694C25.365 16.5694 26.315 17.5242 26.315 18.7037C26.315 19.8833 25.365 20.8194 24.168 20.8194C22.971 20.8194 22.002 19.8833 22.002 18.7037C22.002 18.1377 22.2302 17.5948 22.6364 17.1945C23.0426 16.7943 23.5935 16.5694 24.168 16.5694Z" fill="#0F0708"/>
</svg>
