<svg width="23" height="23" viewBox="0 0 23 23" fill="none" xmlns="http://www.w3.org/2000/svg">
<path d="M10.35 18.4H12.65V16.1H10.35V18.4ZM11.5 0C9.9898 0 8.49438 0.297456 7.09914 0.875385C5.7039 1.45331 4.43615 2.3004 3.36827 3.36827C1.2116 5.52494 0 8.45001 0 11.5C0 14.55 1.2116 17.4751 3.36827 19.6317C4.43615 20.6996 5.7039 21.5467 7.09914 22.1246C8.49438 22.7025 9.9898 23 11.5 23C14.55 23 17.4751 21.7884 19.6317 19.6317C21.7884 17.4751 23 14.55 23 11.5C23 9.9898 22.7025 8.49438 22.1246 7.09914C21.5467 5.7039 20.6996 4.43615 19.6317 3.36827C18.5639 2.3004 17.2961 1.45331 15.9009 0.875385C14.5056 0.297456 13.0102 0 11.5 0ZM11.5 20.7C6.4285 20.7 2.3 16.5715 2.3 11.5C2.3 6.4285 6.4285 2.3 11.5 2.3C16.5715 2.3 20.7 6.4285 20.7 11.5C20.7 16.5715 16.5715 20.7 11.5 20.7ZM11.5 4.6C10.28 4.6 9.10998 5.08464 8.24731 5.94731C7.38464 6.80998 6.9 7.98 6.9 9.2H9.2C9.2 8.59 9.44232 8.00499 9.87365 7.57365C10.305 7.14232 10.89 6.9 11.5 6.9C12.11 6.9 12.695 7.14232 13.1263 7.57365C13.5577 8.00499 13.8 8.59 13.8 9.2C13.8 11.5 10.35 11.2125 10.35 14.95H12.65C12.65 12.3625 16.1 12.075 16.1 9.2C16.1 7.98 15.6154 6.80998 14.7527 5.94731C13.89 5.08464 12.72 4.6 11.5 4.6Z" fill="#323130"/>
</svg>
