<svg width="20" height="20" viewBox="0 0 20 20" fill="none" xmlns="http://www.w3.org/2000/svg">
<path fill-rule="evenodd" clip-rule="evenodd" d="M18.8962 0H1.10381C0.494129 0 0 0.494129 0 1.10381V18.8962C0 19.5058 0.494129 20.0001 1.10381 20.0001H10.6827V12.255H8.07624V9.23655H10.6827V7.01057C10.6827 4.42738 12.2604 3.02075 14.5648 3.02075C15.6687 3.02075 16.6174 3.10288 16.8938 3.1396V5.83925L15.2956 5.84C14.0424 5.84 13.7996 6.43551 13.7996 7.30942V9.23655H16.7886L16.3995 12.255H13.7996V20.0001H18.8962C19.5058 20.0001 20 19.5058 20 18.8962V1.10381C20 0.494129 19.5058 0 18.8962 0Z" fill="white"/>
</svg>
