<svg width="20" height="20" viewBox="0 0 20 20" fill="none" xmlns="http://www.w3.org/2000/svg">
<mask id="mask0" mask-type="alpha" maskUnits="userSpaceOnUse" x="0" y="0" width="20" height="20">
<path d="M10 0H20V20H10H0V0H10Z" fill="white"/>
</mask>
<g mask="url(#mask0)">
<path fill-rule="evenodd" clip-rule="evenodd" d="M9.99999 0C7.28413 0 6.94363 0.0115116 5.87702 0.0601778C4.81259 0.108725 4.0857 0.277786 3.44958 0.525007C2.79199 0.780564 2.23432 1.12246 1.67839 1.67839C1.12246 2.23436 0.780525 2.79203 0.524968 3.44962C0.277747 4.0857 0.108725 4.81263 0.0601381 5.87702C0.0114719 6.94363 0 7.28413 0 10C0 12.7158 0.0114719 13.0564 0.0601381 14.123C0.108725 15.1874 0.277747 15.9143 0.524968 16.5504C0.780525 17.208 1.12246 17.7657 1.67839 18.3216C2.23432 18.8775 2.79199 19.2195 3.44958 19.475C4.0857 19.7222 4.81259 19.8913 5.87702 19.9398C6.94363 19.9885 7.28413 20 9.99999 20C12.7158 20 13.0564 19.9885 14.123 19.9398C15.1874 19.8913 15.9143 19.7222 16.5504 19.475C17.208 19.2195 17.7657 18.8775 18.3216 18.3216C18.8776 17.7657 19.2195 17.208 19.475 16.5504C19.7222 15.9143 19.8913 15.1874 19.9398 14.123C19.9885 13.0564 20 12.7158 20 10C20 7.28417 19.9885 6.94363 19.9398 5.87702C19.8913 4.81263 19.7222 4.0857 19.475 3.44962C19.2195 2.79203 18.8776 2.23436 18.3216 1.67839C17.7657 1.12246 17.208 0.780564 16.5504 0.525007C15.9143 0.277786 15.1874 0.108725 14.123 0.0601778C13.0564 0.0115116 12.7158 0 9.99999 0ZM9.99999 1.8018C12.6701 1.8018 12.9864 1.81196 14.0408 1.86007C15.0158 1.90457 15.5453 2.06748 15.8977 2.20443C16.3645 2.38583 16.6976 2.60253 17.0475 2.95244C17.3974 3.30239 17.6141 3.63552 17.7956 4.10229C17.9325 4.45466 18.0954 4.9842 18.1399 5.95915C18.188 7.01361 18.1982 7.3299 18.1982 10C18.1982 12.6702 18.188 12.9864 18.1399 14.0409C18.0954 15.0158 17.9325 15.5454 17.7956 15.8977C17.6141 16.3645 17.3974 16.6976 17.0475 17.0475C16.6976 17.3974 16.3645 17.6142 15.8977 17.7956C15.5453 17.9325 15.0158 18.0954 14.0408 18.1399C12.9865 18.188 12.6703 18.1982 9.99999 18.1982C7.32966 18.1982 7.01345 18.188 5.95915 18.1399C4.98416 18.0954 4.45466 17.9325 4.10229 17.7956C3.63552 17.6142 3.30235 17.3975 2.95244 17.0476C2.60257 16.6976 2.38583 16.3645 2.20439 15.8977C2.06748 15.5454 1.90457 15.0158 1.86007 14.0409C1.812 12.9864 1.8018 12.6702 1.8018 10C1.8018 7.3299 1.812 7.01361 1.86007 5.95915C1.90457 4.9842 2.06748 4.45466 2.20439 4.10229C2.38583 3.63552 2.60253 3.30239 2.95244 2.95248C3.30235 2.60253 3.63552 2.38583 4.10229 2.20443C4.45466 2.06748 4.98416 1.90457 5.95911 1.86007C7.01361 1.81196 7.32986 1.8018 9.99999 1.8018Z" fill="white"/>
</g>
<path fill-rule="evenodd" clip-rule="evenodd" d="M9.99986 13.3337C8.15892 13.3337 6.66651 11.8413 6.66651 10.0004C6.66651 8.15941 8.15892 6.66703 9.99986 6.66703C11.8408 6.66703 13.3332 8.15941 13.3332 10.0004C13.3332 11.8413 11.8408 13.3337 9.99986 13.3337ZM9.99986 4.86523C7.16381 4.86523 4.86475 7.16433 4.86475 10.0004C4.86475 12.8364 7.16381 15.1355 9.99986 15.1355C12.8359 15.1355 15.135 12.8364 15.135 10.0004C15.135 7.16433 12.8359 4.86523 9.99986 4.86523Z" fill="white"/>
<path fill-rule="evenodd" clip-rule="evenodd" d="M16.5382 4.6619C16.5382 5.32465 16.001 5.86188 15.3382 5.86188C14.6755 5.86188 14.1382 5.32465 14.1382 4.6619C14.1382 3.99915 14.6755 3.46191 15.3382 3.46191C16.001 3.46191 16.5382 3.99915 16.5382 4.6619Z" fill="white"/>
</svg>
