<svg width="216" height="246" viewBox="0 0 216 246" fill="none" xmlns="http://www.w3.org/2000/svg">
<g opacity="0.5">
<rect x="0.965576" width="16.9655" height="16.9655" fill="#0F0708"/>
<rect x="43.3794" width="16.9655" height="16.9655" fill="#0F0708"/>
<rect x="85.7932" width="16.9655" height="16.9655" fill="#0F0708"/>
<rect x="128.207" width="16.9655" height="16.9655" fill="#0F0708"/>
<rect x="170.621" width="16.9655" height="16.9655" fill="#0F0708"/>
<rect x="213.035" width="16.9655" height="16.9655" fill="#0F0708"/>
<rect x="0.965576" y="45.8069" width="16.9655" height="16.9655" fill="#0F0708"/>
<rect x="43.3794" y="45.8069" width="16.9655" height="16.9655" fill="#0F0708"/>
<rect x="85.7932" y="45.8069" width="16.9655" height="16.9655" fill="#0F0708"/>
<rect x="128.207" y="45.8069" width="16.9655" height="16.9655" fill="#0F0708"/>
<rect x="170.621" y="45.8069" width="16.9655" height="16.9655" fill="#0F0708"/>
<rect x="213.035" y="45.8069" width="16.9655" height="16.9655" fill="#0F0708"/>
<rect x="0.965576" y="91.6138" width="16.9655" height="16.9655" fill="#0F0708"/>
<rect x="43.3794" y="91.6138" width="16.9655" height="16.9655" fill="#0F0708"/>
<rect x="85.7932" y="91.6138" width="16.9655" height="16.9655" fill="#0F0708"/>
<rect x="128.207" y="91.6138" width="16.9655" height="16.9655" fill="#0F0708"/>
<rect x="170.621" y="91.6138" width="16.9655" height="16.9655" fill="#0F0708"/>
<rect x="213.035" y="91.6138" width="16.9655" height="16.9655" fill="#0F0708"/>
<rect x="0.965576" y="137.421" width="16.9655" height="16.9655" fill="#0F0708"/>
<rect x="43.3794" y="137.421" width="16.9655" height="16.9655" fill="#0F0708"/>
<rect x="85.7932" y="137.421" width="16.9655" height="16.9655" fill="#0F0708"/>
<rect x="128.207" y="137.421" width="16.9655" height="16.9655" fill="#0F0708"/>
<rect x="170.621" y="137.421" width="16.9655" height="16.9655" fill="#0F0708"/>
<rect x="213.035" y="137.421" width="16.9655" height="16.9655" fill="#0F0708"/>
<rect x="0.965576" y="183.228" width="16.9655" height="16.9655" fill="#0F0708"/>
<rect x="43.3794" y="183.228" width="16.9655" height="16.9655" fill="#0F0708"/>
<rect x="85.7932" y="183.228" width="16.9655" height="16.9655" fill="#0F0708"/>
<rect x="128.207" y="183.228" width="16.9655" height="16.9655" fill="#0F0708"/>
<rect x="170.621" y="183.228" width="16.9655" height="16.9655" fill="#0F0708"/>
<rect x="213.035" y="183.228" width="16.9655" height="16.9655" fill="#0F0708"/>
<rect x="0.965576" y="229.034" width="16.9655" height="16.9655" fill="#0F0708"/>
<rect x="43.3794" y="229.034" width="16.9655" height="16.9655" fill="#0F0708"/>
<rect x="85.7932" y="229.034" width="16.9655" height="16.9655" fill="#0F0708"/>
<rect x="128.207" y="229.034" width="16.9655" height="16.9655" fill="#0F0708"/>
<rect x="170.621" y="229.034" width="16.9655" height="16.9655" fill="#0F0708"/>
<rect x="213.035" y="229.034" width="16.9655" height="16.9655" fill="#0F0708"/>
</g>
</svg>
