<svg width="20" height="17" viewBox="0 0 20 17" fill="none" xmlns="http://www.w3.org/2000/svg">
<path fill-rule="evenodd" clip-rule="evenodd" d="M17.9637 4.57209C17.9637 9.99688 13.837 16.25 6.28976 16.25C4.05303 16.2488 1.86591 15.6078 0 14.4065C0.324808 14.442 0.651284 14.4609 0.978111 14.4634C2.83434 14.4634 4.634 13.8411 6.07463 12.7011C4.30041 12.6586 2.75417 11.5128 2.2389 9.85882C2.49375 9.90789 2.75294 9.93237 3.01272 9.93191C3.37932 9.93318 3.74427 9.88396 4.09673 9.78573C2.1591 9.37573 0.783496 7.69686 0.803002 5.76587C1.37292 6.02837 2.01044 6.2037 2.66333 6.22876C0.85419 4.99239 0.30463 2.62028 1.39337 0.747127C3.44596 3.29678 6.5285 4.8597 9.85032 5.03498C9.77962 4.72846 9.7441 4.41524 9.74442 4.10107C9.71476 1.86506 11.5519 0.0289656 13.8478 0C14.9879 0.000520611 16.0748 0.469362 16.8414 1.29123C17.7639 1.11397 18.6468 0.778507 19.4488 0.300475C19.1486 1.24394 18.5068 2.0491 17.6427 2.56622C18.4576 2.4712 19.2526 2.25483 20 1.92466C19.4521 2.74356 18.7592 3.46122 17.9537 4.04423C17.9612 4.22289 17.9637 4.40155 17.9637 4.57209Z" fill="white"/>
</svg>
