<svg width="15" height="9" viewBox="0 0 15 9" fill="none" xmlns="http://www.w3.org/2000/svg">
<path d="M7.44828 0C8.02444 0 8.577 0.228879 8.9844 0.636285C9.39181 1.04369 9.62069 1.59625 9.62069 2.17241C9.62069 2.74857 9.39181 3.30114 8.9844 3.70854C8.577 4.11595 8.02444 4.34483 7.44828 4.34483C6.87212 4.34483 6.31955 4.11595 5.91215 3.70854C5.50474 3.30114 5.27586 2.74857 5.27586 2.17241C5.27586 1.59625 5.50474 1.04369 5.91215 0.636285C6.31955 0.228879 6.87212 0 7.44828 0ZM3.10345 1.55172C3.45103 1.55172 3.77379 1.64483 4.0531 1.81241C3.96 2.7 4.22069 3.58138 4.75448 4.27034C4.44414 4.86621 3.82345 5.27586 3.10345 5.27586C2.6096 5.27586 2.13597 5.07968 1.78677 4.73047C1.43756 4.38127 1.24138 3.90764 1.24138 3.41379C1.24138 2.91994 1.43756 2.44632 1.78677 2.09711C2.13597 1.74791 2.6096 1.55172 3.10345 1.55172ZM11.7931 1.55172C12.287 1.55172 12.7606 1.74791 13.1098 2.09711C13.459 2.44632 13.6552 2.91994 13.6552 3.41379C13.6552 3.90764 13.459 4.38127 13.1098 4.73047C12.7606 5.07968 12.287 5.27586 11.7931 5.27586C11.0731 5.27586 10.4524 4.86621 10.1421 4.27034C10.6759 3.58138 10.9366 2.7 10.8434 1.81241C11.1228 1.64483 11.4455 1.55172 11.7931 1.55172ZM3.41379 7.91379C3.41379 6.62897 5.22 5.58621 7.44828 5.58621C9.67655 5.58621 11.4828 6.62897 11.4828 7.91379V9H3.41379V7.91379ZM0 9V8.06896C0 7.20621 1.1731 6.48 2.76207 6.26897C2.39586 6.69103 2.17241 7.27448 2.17241 7.91379V9H0ZM14.8966 9H12.7241V7.91379C12.7241 7.27448 12.5007 6.69103 12.1345 6.26897C13.7234 6.48 14.8966 7.20621 14.8966 8.06896V9Z" fill="#323130"/>
</svg>
